<?xml version="1.0" encoding="UTF-8" standalone="no"?><!DOCTYPE svg PUBLIC "-//W3C//DTD SVG 1.1//EN" "http://www.w3.org/Graphics/SVG/1.1/DTD/svg11.dtd"><svg width="100%" height="100%" viewBox="0 0 4000 4000" version="1.1" xmlns="http://www.w3.org/2000/svg" xmlns:xlink="http://www.w3.org/1999/xlink" xml:space="preserve" xmlns:serif="http://www.serif.com/" style="fill-rule:evenodd;clip-rule:evenodd;stroke-linejoin:round;stroke-miterlimit:2;"><path d="M1555.58,444.638l-0,-444.42l-1027.72,-0c-291.053,-0 -527.749,236.696 -527.749,527.749l-0,2944.28c-0,291.317 236.696,527.749 527.749,527.749l2944.28,0c291.318,0 527.749,-236.432 527.749,-527.749l0,-1027.72l-444.42,0l-0,1111.05l-3110.94,-0l0,-3110.94l1111.05,0Zm2444.31,-444.638l-1555.47,0l0,444.42l796.846,0l-1842.8,1842.78l314.211,314.205l1842.79,-1842.78l-0,796.846l444.42,-0l0,-1555.47Z" style="fill:#b9bbbe;fill-rule:nonzero;"/></svg>