<?xml version="1.0" encoding="UTF-8" standalone="no"?><!DOCTYPE svg PUBLIC "-//W3C//DTD SVG 1.1//EN" "http://www.w3.org/Graphics/SVG/1.1/DTD/svg11.dtd"><svg width="100%" height="100%" viewBox="0 0 4000 4000" version="1.1" xmlns="http://www.w3.org/2000/svg" xmlns:xlink="http://www.w3.org/1999/xlink" xml:space="preserve" xmlns:serif="http://www.serif.com/" style="fill-rule:evenodd;clip-rule:evenodd;stroke-linejoin:round;stroke-miterlimit:2;"><path d="M3927.53,1879.22l-861.6,-1487.67l-70.458,-120.785l-1994.97,-0l-70.458,120.785l-859.587,1487.67l-70.458,120.785l70.458,120.785l859.587,1487.67l70.458,120.785l1996.98,0l70.458,-120.785l861.6,-1487.67l70.458,-120.785l-72.471,-120.785Zm-2631.1,-207.348l-328.133,328.133l328.133,328.133l-0,549.572l-877.705,-877.705l879.718,-879.718l-0,551.585l-2.013,0Zm628.082,1395.07l-410.669,-126.824l624.056,-2009.06l410.67,128.837l-624.057,2007.05Zm777.051,-187.217l0,-549.572l328.133,-330.146l-328.133,-328.133l0,-551.585l877.705,879.718l-877.705,879.718Z" style="fill:#0071e1;fill-rule:nonzero;"/></svg>